<svg
      xmlns="http://www.w3.org/2000/svg"
      width="100%"
      height="34"
      fill="none"
      data-ember-extension="1"
    >
      <path
        fill="#fff"
        fill-rule="evenodd"
        d="M34.253 8.965 25.929.642l-8.323 8.323L9.282.642.958 8.965l8.324 8.324-8.324 8.324 8.324 8.323 8.324-8.323 8.323 8.323 8.324-8.323-8.324-8.324 8.324-8.324zm-8.324 8.324-8.323 8.324-8.324-8.324 8.324-8.324 8.323 8.324z"
        clip-rule="evenodd"
      />
      <path
        fill="#fff"
        d="M60.353 27.514c-5.07 0-9.635-3.324-9.635-10.085 0-6.762 4.62-10.086 9.635-10.086 4.48 0 8.03 2.704 8.565 6.564h-3.071c-.338-2.31-2.648-3.972-5.522-3.972-3.832 0-6.592 2.62-6.592 7.494 0 4.873 2.76 7.494 6.592 7.494 2.93 0 5.268-1.663 5.578-3.973h2.958c-.422 3.86-3.944 6.564-8.508 6.564zm17.687 0c-4.254 0-7.325-3.07-7.325-7.325 0-4.254 3.071-7.324 7.325-7.324s7.297 3.07 7.297 7.324c0 4.255-3.043 7.325-7.297 7.325zm0-2.394c2.677 0 4.508-2.029 4.508-4.93 0-2.902-1.831-4.93-4.508-4.93-2.704 0-4.536 2.028-4.536 4.93 0 2.901 1.832 4.93 4.536 4.93zm9.803-17.974h3.043v3.437h-3.043V7.146zm.17 20.143V13.09h2.732v14.2h-2.733zm6.19 0V13.09h2.732v2.508c.76-1.775 2.451-2.733 4.564-2.733 3.212 0 5.296 2.31 5.296 5.69v8.734h-2.732V19.09c0-2.254-1.325-3.775-3.325-3.775-2.225 0-3.803 1.803-3.803 4.282v7.69h-2.733zm17.315 0V15.457h-2.902V13.09h2.902v-1.38c0-2.79 1.831-4.564 4.677-4.564h2.338v2.366h-2.141c-1.296 0-2.141.874-2.141 2.282v1.296h4.282v2.367h-4.282v11.832h-2.733zm21.634-14.199v14.2h-2.733v-2.507c-.761 1.774-2.451 2.732-4.564 2.732-3.212 0-5.296-2.31-5.296-5.69V13.09h2.732v8.198c0 2.254 1.325 3.775 3.325 3.775 2.225 0 3.803-1.803 3.803-4.282v-7.69h2.733zm8.488 14.424c-3.325 0-5.55-1.859-5.747-4.845h2.563c.169 1.634 1.352 2.563 3.184 2.563 1.634 0 2.676-.873 2.676-1.915 0-3.775-8.057-.31-8.057-6.367 0-2.451 2.085-4.085 5.043-4.085 3.211 0 5.409 1.775 5.55 4.451h-2.564c-.197-1.634-1.775-2.282-2.986-2.282-1.465 0-2.451.732-2.451 1.831 0 3.522 8.113-.084 8.113 6.395 0 2.592-2.113 4.254-5.324 4.254zm18.223-4.845h2.733c-.507 2.93-3.071 4.845-6.564 4.845-4.395 0-7.128-3.465-7.128-7.409 0-3.972 2.48-7.24 6.846-7.24 4.395 0 6.733 3.127 6.733 6.733 0 .366-.028.817-.056 1.07h-10.846c.225 2.677 1.972 4.508 4.451 4.508 2.085 0 3.437-.901 3.831-2.507zm-4.113-7.607c-2.225 0-3.662 1.24-4.085 3.606h8.058c-.17-2.169-1.634-3.606-3.973-3.606z"
      />
    </svg>