<svg
      xmlns="http://www.w3.org/2000/svg"
      width="100%"
      height="34"
      style="width:100%; height:100%"
      
      fill="none"
 
    >
      <path
        fill="#fff"
        fill-rule="evenodd"
        d="M17.214.975a6.195 6.195 0 1 1 0 12.39 6.195 6.195 0 0 1 0-12.39zM6.864 32.79a6.195 6.195 0 1 1 7.283-10.024A6.195 6.195 0 0 1 6.864 32.79zm22.091-8.653a6.195 6.195 0 1 1-10.024 7.283 6.195 6.195 0 0 1 10.024-7.283zM.459 13.118a6.195 6.195 0 1 1 11.784 3.83A6.195 6.195 0 0 1 .46 13.117zm25.7-3.977a6.195 6.195 0 1 1 3.83 11.784 6.195 6.195 0 0 1-3.83-11.784z"
        clip-rule="evenodd"
      />
      <path
        fill="#fff"
        d="M51.92 27.475V7.895h7.324c1.784 0 3.418.366 4.902 1.099 1.502.714 2.733 1.831 3.69 3.352.977 1.503 1.465 3.287 1.465 5.353 0 3.043-.986 5.437-2.958 7.184-1.953 1.728-4.32 2.592-7.1 2.592H51.92zm3.126-2.817h3.747c2.066 0 3.785-.564 5.156-1.69 1.37-1.146 2.056-2.912 2.056-5.297 0-1.22-.197-2.291-.591-3.212-.395-.939-.94-1.671-1.634-2.197a6.714 6.714 0 0 0-2.282-1.155 8.88 8.88 0 0 0-2.705-.395h-3.747v13.946zm27.89-2.029 2.394 1.324c-1.296 2.573-3.427 3.86-6.395 3.86-2.085 0-3.803-.657-5.156-1.972-1.352-1.334-2.028-3.07-2.028-5.212 0-2.104.657-3.822 1.972-5.156 1.334-1.333 3.005-2 5.015-2 1.99 0 3.559.639 4.705 1.916 1.164 1.258 1.746 2.94 1.746 5.043 0 .47-.01.77-.028.901H74.963c.094 1.24.488 2.216 1.183 2.93.714.714 1.653 1.07 2.817 1.07 1.71 0 3.033-.9 3.973-2.704zm-4.283-6.761c-.995 0-1.822.3-2.479.901s-1.052 1.428-1.183 2.48h7.071c-.094-1.09-.432-1.925-1.014-2.508-.564-.582-1.362-.873-2.395-.873zm19.882 6.761 2.394 1.324c-1.296 2.573-3.427 3.86-6.395 3.86-2.085 0-3.803-.657-5.155-1.972-1.353-1.334-2.029-3.07-2.029-5.212 0-2.104.658-3.822 1.972-5.156 1.334-1.333 3.005-2 5.015-2 1.99 0 3.56.639 4.705 1.916 1.164 1.258 1.747 2.94 1.747 5.043 0 .47-.01.77-.029.901H90.562c.094 1.24.488 2.216 1.183 2.93.714.714 1.653 1.07 2.817 1.07 1.71 0 3.034-.9 3.973-2.704zm-4.282-6.761c-.996 0-1.822.3-2.48.901-.657.601-1.051 1.428-1.183 2.48h7.071c-.094-1.09-.432-1.925-1.014-2.508-.563-.582-1.362-.873-2.395-.873zm9.683 17.523v-19.58h2.958v2.17c1.033-1.672 2.62-2.508 4.761-2.508 1.803 0 3.315.686 4.536 2.057 1.22 1.37 1.831 3.07 1.831 5.099 0 2.047-.611 3.756-1.831 5.127-1.202 1.371-2.705 2.057-4.508 2.057-2.104 0-3.672-.798-4.705-2.395v7.973h-3.042zm7.015-8.057c1.202 0 2.15-.423 2.845-1.268.695-.845 1.042-1.99 1.042-3.437 0-1.446-.347-2.582-1.042-3.409-.695-.845-1.643-1.268-2.845-1.268-1.109 0-2.048.451-2.818 1.353-.77.901-1.155 2.01-1.155 3.324 0 1.333.385 2.451 1.155 3.352.77.902 1.709 1.353 2.818 1.353zm15.285 2.479c-1.821 0-3.343-.686-4.564-2.057-1.202-1.39-1.803-3.099-1.803-5.127 0-2.028.601-3.728 1.803-5.1 1.221-1.37 2.733-2.056 4.536-2.056 2.123 0 3.691.798 4.705 2.395V7.895h3.043v19.58h-2.959V25.22c-1.051 1.728-2.638 2.592-4.761 2.592zm.705-2.48c1.108 0 2.047-.45 2.817-1.351.77-.902 1.155-2.02 1.155-3.353 0-1.315-.385-2.423-1.155-3.324-.77-.902-1.709-1.353-2.817-1.353-1.202 0-2.151.423-2.846 1.268-.695.827-1.042 1.963-1.042 3.409 0 1.446.347 2.592 1.042 3.437.695.845 1.644 1.268 2.846 1.268zm12.356-13.832c-.545 0-.996-.169-1.353-.507-.356-.338-.535-.77-.535-1.296s.179-.958.535-1.296c.357-.357.808-.535 1.353-.535.526 0 .967.178 1.324.535.375.338.563.77.563 1.296 0 .507-.188.94-.563 1.296-.357.338-.798.507-1.324.507zm-1.522 15.974V13.81h3.043v13.664h-3.043zm10.26 0L142.71 13.81h3.268l3.86 10.537 3.775-10.537h3.24l-5.325 13.664h-3.493zm20.793-4.846 2.394 1.324c-1.296 2.573-3.427 3.86-6.395 3.86-2.084 0-3.803-.657-5.155-1.972-1.353-1.334-2.029-3.07-2.029-5.212 0-2.104.658-3.822 1.972-5.156 1.334-1.333 3.005-2 5.015-2 1.991 0 3.559.639 4.705 1.916 1.164 1.258 1.747 2.94 1.747 5.043 0 .47-.01.77-.029.901h-10.198c.094 1.24.488 2.216 1.183 2.93.714.714 1.653 1.07 2.817 1.07 1.71 0 3.034-.9 3.973-2.704zm-4.282-6.761c-.996 0-1.822.3-2.48.901-.657.601-1.051 1.428-1.183 2.48h7.071c-.094-1.09-.432-1.925-1.014-2.508-.563-.582-1.361-.873-2.394-.873z"
      />
    </svg>