<svg ><path fill="#fff" fill-rule="evenodd" d="M15.226 16.375C14.824 24.24 8.364 30.505.42 30.597v-30C8.364.69 14.824 6.954 15.226 14.82 15.622 7.058 21.918.854 29.717.604v29.987c-7.799-.25-14.095-6.454-14.491-14.216z" clip-rule="evenodd"/><path fill="#fff" d="M66.35 25.597H63.2l-1.21-1.43c-1.66 1.137-3.549 1.705-5.667 1.705a10.04 10.04 0 0 1-3.948-.784 9.64 9.64 0 0 1-3.164-2.132c-.88-.908-1.578-1.99-2.091-3.246a10.615 10.615 0 0 1-.77-4.03c0-1.872.43-3.577 1.293-5.118a9.549 9.549 0 0 1 3.59-3.632c1.531-.89 3.228-1.334 5.09-1.334 1.384 0 2.691.261 3.92.784 1.238.514 2.297 1.22 3.178 2.119.89.89 1.59 1.958 2.104 3.205s.77 2.572.77 3.975c0 2.687-.834 4.98-2.503 6.878l2.559 3.04zM56.324 23.26c1.467 0 2.774-.395 3.92-1.183l-4.677-5.613h3.123l3.301 3.948c1.009-1.357 1.513-2.934 1.513-4.732 0-1.375-.316-2.636-.949-3.783A6.901 6.901 0 0 0 59.968 9.2c-1.1-.66-2.316-.99-3.645-.99-1.33 0-2.545.33-3.646.99a7 7 0 0 0-2.6 2.696c-.623 1.147-.935 2.408-.935 3.783 0 2.137.688 3.934 2.063 5.393 1.385 1.458 3.09 2.187 5.118 2.187zM79.75 11.856h2.6v13.742h-2.6v-1.994c-.422.688-1.04 1.238-1.857 1.65a5.77 5.77 0 0 1-2.641.62c-1.706 0-3.072-.56-4.1-1.679-1.027-1.119-1.54-2.604-1.54-4.457v-7.882h2.627v7.483c0 1.21.326 2.178.977 2.903.66.715 1.536 1.073 2.627 1.073.807 0 1.564-.197 2.27-.592.715-.403 1.261-.94 1.637-1.61v-9.257zm12.6-.289c1.312 0 2.509.317 3.59.95A6.794 6.794 0 0 1 98.5 15.1c.632 1.101.949 2.316.949 3.646 0 2.008-.688 3.7-2.064 5.076-1.366 1.366-3.044 2.05-5.034 2.05-1.312 0-2.513-.312-3.605-.936a6.823 6.823 0 0 1-2.558-2.572c-.624-1.092-.936-2.298-.936-3.618 0-2.027.684-3.728 2.05-5.104 1.367-1.384 3.05-2.077 5.049-2.077zm0 2.476c-1.293 0-2.38.45-3.26 1.348-.87.9-1.306 2.018-1.306 3.357 0 1.311.435 2.416 1.306 3.315.88.89 1.967 1.334 3.26 1.334 1.284 0 2.367-.449 3.247-1.348.88-.898 1.32-1.999 1.32-3.301 0-1.34-.44-2.458-1.32-3.357-.88-.898-1.963-1.348-3.246-1.348zm16.205-2.476c.477 0 .981.074 1.513.22l-.137 2.463a4.499 4.499 0 0 0-1.555-.262c-.596 0-1.219.225-1.871.674-.642.44-1.16 1.032-1.554 1.775v9.161h-2.627V11.855h2.627v1.995a4.47 4.47 0 0 1 1.582-1.651c.679-.422 1.353-.633 2.022-.633zm13.866.29h2.6v13.741h-2.6v-1.994c-.422.688-1.041 1.238-1.857 1.65a5.77 5.77 0 0 1-2.641.62c-1.706 0-3.072-.56-4.099-1.679-1.028-1.119-1.541-2.604-1.541-4.457v-7.882h2.627v7.483c0 1.21.326 2.178.977 2.903.66.715 1.536 1.073 2.627 1.073.807 0 1.564-.197 2.27-.592.715-.403 1.261-.94 1.637-1.61v-9.257zm22.202-.29c1.688 0 3.045.518 4.072 1.555 1.027 1.036 1.541 2.425 1.541 4.168v8.308h-2.6v-7.854c0-1.156-.307-2.068-.922-2.738-.614-.678-1.449-1.018-2.503-1.018-.697 0-1.381.211-2.05.633-.66.413-1.174.926-1.541 1.54.055.23.096.5.124.812v8.625h-2.6v-7.854c0-1.147-.312-2.06-.935-2.738-.615-.678-1.431-1.018-2.449-1.018-.761 0-1.449.197-2.063.592a3.856 3.856 0 0 0-1.417 1.554v9.464h-2.627V11.855h2.627v1.94c.413-.606.977-1.128 1.692-1.569.724-.44 1.596-.66 2.614-.66 2.045 0 3.498.816 4.36 2.449a6.584 6.584 0 0 1 1.995-1.747 5.3 5.3 0 0 1 2.682-.702z"/></svg>